<svg xmlns="http://www.w3.org/2000/svg" xmlns:xlink="http://www.w3.org/1999/xlink" viewBox="0,0,256,256" width="128px" height="128px"><g transform="translate(44.8,44.8) scale(0.65,0.65)"><g fill="#6400b4" fill-rule="nonzero" stroke="none" stroke-width="1" stroke-linecap="butt" stroke-linejoin="miter" stroke-miterlimit="10" stroke-dasharray="" stroke-dashoffset="0" font-family="none" font-weight="none" font-size="none" text-anchor="none" style="mix-blend-mode: normal"><path d="M6.69538,301.29231c-28.71201,0 -51.98769,-23.27568 -51.98769,-51.98769v-242.60923c0,-28.71201 23.27568,-51.98769 51.98769,-51.98769h242.60923c28.71201,0 51.98769,23.27568 51.98769,51.98769v242.60923c0,28.71201 -23.27568,51.98769 -51.98769,51.98769z" id="shape"></path></g><g fill="#fcffb2" fill-rule="nonzero" stroke="none" stroke-width="1" stroke-linecap="butt" stroke-linejoin="miter" stroke-miterlimit="10" stroke-dasharray="" stroke-dashoffset="0" font-family="none" font-weight="none" font-size="none" text-anchor="none" style="mix-blend-mode: normal"><g transform="scale(2,2)"><path d="M59,1c-31.98,0 -58,26.02 -58,58c0,15.34 5.92922,29.8007 16.69922,40.7207c0.59,0.6 1.36086,0.88867 2.13086,0.88868c0.76,0 1.51938,-0.28938 2.10938,-0.85938c1.18,-1.16 1.19125,-3.06023 0.03125,-4.24023c-2.2,-2.23 -4.16039,-4.63992 -5.90039,-7.16992c6.97,-4.48 14.5293,-7.82922 22.5293,-9.94922c1.58,-0.42 2.53039,-2.02133 2.15039,-3.61133c-1.11,-5.15 -1.66992,-10.4593 -1.66992,-15.7793c0,-4.34 0.38938,-8.63008 1.10938,-12.83008c6.12,1.37 12.42078,2.08008 18.80078,2.08008c7.4,0 14.74984,-0.95031 21.83984,-2.82031c8.6,-2.27 16.74047,-5.85016 24.23047,-10.66016c2.04,3.92 3.61867,8.16039 4.63867,12.65039c0.37,1.62 1.96984,2.62977 3.58984,2.25977c1.62,-0.37 2.63172,-1.96984 2.26172,-3.58984c-6.02,-26.54 -29.28078,-45.08984 -56.55078,-45.08984zM66.32031,7.50977c14.71,2.05 27.55992,10.17938 35.66992,22.10938c-6.14,3.96 -12.7507,7.03016 -19.7207,9.16016c-2.95,-11.47 -8.39922,-22.12953 -15.94922,-31.26953zM51.57031,7.53906c-7.6,9.19 -12.99969,19.8207 -15.92969,31.2207c-6.87,-2.11 -13.44055,-5.15008 -19.56055,-9.08008c8.05,-11.74 20.78023,-20.03063 35.49023,-22.14063zM58.96094,8.19922c8.44,9.14 14.43976,20.15109 17.50977,32.12109c-5.71,1.28 -11.5707,1.92969 -17.4707,1.92969c-5.97,0 -11.85055,-0.65922 -17.56055,-1.94922c3.05,-11.9 9.01148,-22.89156 17.52148,-32.10156zM12.98047,34.82031c6.69,4.28 13.87867,7.56031 21.38867,9.82031c-0.84,4.7 -1.28906,9.48938 -1.28906,14.35938c0,4.82 0.42953,9.63938 1.26953,14.35938c-7.56,2.27 -14.74039,5.56984 -21.40039,9.83984c-3.89,-7.38 -5.94922,-15.63922 -5.94922,-24.19922c0,-8.73 2.17047,-16.94969 5.98047,-24.17969zM89,51c-20.95,0 -38,17.05 -38,38c0,20.95 17.05,38 38,38c20.95,0 38,-17.05 38,-38c0,-20.95 -17.05,-38 -38,-38zM89,57c17.64,0 32,14.35 32,32c0,17.65 -14.36,32 -32,32c-17.64,0 -32,-14.35 -32,-32c0,-17.65 14.36,-32 32,-32zM89,76c-1.66,0 -3,1.34 -3,3v20c0,1.66 1.34,3 3,3c1.66,0 3,-1.34 3,-3v-20c0,-1.66 -1.34,-3 -3,-3zM41.85742,84.99414c-0.57779,0.02918 -1.15149,0.22445 -1.64648,0.5957c-5.85,4.39 -9.21094,11.10016 -9.21094,18.41016c0,12.68 10.32,23 23,23c1.29,0 2.58961,-0.11031 3.84961,-0.32031c1.63,-0.28 2.73094,-1.81899 2.46094,-3.45899c-0.27,-1.64 -1.83094,-2.74093 -3.46094,-2.46093c-0.94,0.16 -1.89961,0.24023 -2.84961,0.24023c-9.37,0 -17,-7.63 -17,-17c0,-5.4 2.48055,-10.35937 6.81055,-13.60937c1.33,-0.99 1.58961,-2.87117 0.59961,-4.20117c-0.61875,-0.83125 -1.58975,-1.24394 -2.55273,-1.19531z"></path></g></g></g></svg>